<svg id="svg" version="1.1" xmlns="http://www.w3.org/2000/svg" xmlns:xlink="http://www.w3.org/1999/xlink" width="400" height="400" viewBox="0, 0, 400,400"><g id="svgg"><path id="path0" d="M336.162 103.669 C 335.743 104.147,335.639 104.397,335.932 104.225 C 336.360 103.974,336.438 104.545,336.332 107.163 C 336.216 110.022,336.287 110.439,336.929 110.642 C 337.372 110.782,337.568 111.106,337.429 111.469 C 337.303 111.797,337.200 113.951,337.200 116.256 C 337.200 119.478,337.084 120.388,336.700 120.193 C 336.425 120.053,336.605 120.297,337.100 120.734 C 338.090 121.608,338.569 141.200,337.600 141.200 C 337.380 141.200,337.203 141.515,337.206 141.900 C 337.211 142.505,337.271 142.518,337.641 142.000 C 337.983 141.521,338.028 141.586,337.866 142.324 C 337.738 142.905,337.874 143.330,338.231 143.467 C 338.720 143.655,338.800 152.854,338.800 208.692 C 338.800 263.028,338.712 273.625,338.263 273.252 C 337.968 273.007,337.638 272.895,337.530 273.003 C 337.422 273.112,337.333 272.950,337.333 272.644 C 337.333 271.571,335.956 269.200,335.332 269.200 C 334.832 269.200,334.800 269.082,335.175 268.630 C 335.557 268.170,335.411 267.884,334.424 267.155 C 333.339 266.353,332.620 265.195,333.573 265.783 C 333.778 265.910,333.683 265.488,333.363 264.846 C 333.042 264.204,332.515 263.576,332.190 263.452 C 331.866 263.327,331.600 263.029,331.600 262.789 C 331.600 262.549,331.793 262.472,332.030 262.618 C 332.267 262.765,332.231 262.518,331.949 262.068 C 331.669 261.619,331.268 261.358,331.058 261.488 C 330.848 261.617,330.784 261.550,330.915 261.337 C 331.200 260.876,329.859 258.704,329.470 258.997 C 329.321 259.109,329.290 259.080,329.401 258.932 C 329.511 258.785,329.286 258.304,328.901 257.864 C 328.515 257.423,328.408 257.184,328.663 257.332 C 329.012 257.535,329.013 257.364,328.669 256.635 C 328.418 256.103,328.113 255.730,327.990 255.806 C 327.867 255.882,327.737 255.555,327.701 255.078 C 327.665 254.602,327.448 254.149,327.218 254.073 C 326.988 253.996,326.800 253.628,326.800 253.255 C 326.800 252.882,326.440 252.317,326.000 252.000 C 325.560 251.683,325.200 251.103,325.200 250.712 C 325.200 250.320,325.020 250.000,324.800 250.000 C 324.580 250.000,324.400 249.640,324.400 249.200 C 324.400 248.760,324.220 248.400,324.000 248.400 C 323.780 248.400,323.600 248.040,323.600 247.600 C 323.600 247.160,323.420 246.800,323.200 246.800 C 322.980 246.800,322.800 246.440,322.800 246.000 C 322.800 245.560,322.620 245.200,322.400 245.200 C 322.180 245.200,322.000 244.906,322.000 244.547 C 322.000 244.188,321.685 243.601,321.300 243.243 C 320.399 242.404,319.600 240.977,319.600 240.205 C 319.600 239.872,319.465 239.599,319.300 239.597 C 318.967 239.593,318.001 237.681,317.998 237.020 C 317.997 236.789,317.457 236.025,316.798 235.322 C 316.139 234.619,315.600 233.764,315.600 233.422 C 315.600 233.080,315.390 232.800,315.133 232.800 C 314.877 232.800,314.782 232.685,314.923 232.544 C 315.257 232.209,313.951 230.002,313.414 229.994 C 313.186 229.991,313.230 229.842,313.511 229.664 C 313.897 229.418,313.780 229.080,313.030 228.270 C 312.484 227.681,312.165 227.195,312.319 227.188 C 312.474 227.181,312.292 226.996,311.917 226.777 C 311.540 226.558,311.335 226.115,311.459 225.789 C 311.584 225.465,311.486 225.200,311.243 225.200 C 310.999 225.200,310.800 224.906,310.800 224.547 C 310.800 224.188,310.423 223.567,309.963 223.168 C 309.503 222.769,309.232 222.273,309.360 222.065 C 309.488 221.857,309.145 221.394,308.597 221.035 C 307.968 220.623,307.600 220.007,307.600 219.367 C 307.600 218.750,307.433 218.456,307.173 218.617 C 306.939 218.762,306.780 218.637,306.821 218.340 C 306.971 217.242,306.790 216.759,306.332 217.042 C 306.019 217.235,305.947 217.115,306.115 216.677 C 306.253 216.317,306.091 215.748,305.754 215.412 C 305.418 215.075,305.268 214.800,305.420 214.800 C 305.573 214.800,305.497 214.558,305.252 214.263 C 305.007 213.968,304.897 213.636,305.007 213.526 C 305.118 213.416,304.775 212.858,304.246 212.287 C 303.717 211.716,303.373 211.161,303.481 211.052 C 303.589 210.944,303.300 210.620,302.839 210.331 C 302.378 210.043,302.000 209.491,302.000 209.104 C 302.000 208.717,301.820 208.400,301.600 208.400 C 301.380 208.400,301.200 208.040,301.200 207.600 C 301.200 207.160,301.020 206.800,300.800 206.800 C 300.580 206.800,300.400 206.281,300.400 205.647 C 300.400 204.830,300.167 204.432,299.600 204.284 C 299.115 204.157,298.800 203.738,298.800 203.221 C 298.800 202.751,298.440 201.980,298.000 201.508 C 297.560 201.036,297.200 200.233,297.200 199.725 C 297.200 199.216,297.020 198.800,296.800 198.800 C 296.580 198.800,296.400 198.480,296.400 198.088 C 296.400 197.697,296.040 197.117,295.600 196.800 C 295.160 196.483,294.800 195.922,294.800 195.554 C 294.800 195.187,294.511 194.775,294.158 194.639 C 293.781 194.494,293.614 194.140,293.754 193.776 C 293.889 193.423,293.822 193.263,293.595 193.403 C 293.378 193.537,293.200 193.269,293.200 192.807 C 293.200 192.345,292.840 191.580,292.400 191.108 C 291.960 190.636,291.600 189.861,291.600 189.387 C 291.600 188.912,291.240 188.198,290.800 187.800 C 290.360 187.402,290.000 186.835,290.000 186.541 C 290.000 186.247,289.640 185.782,289.200 185.507 C 288.760 185.232,288.400 184.860,288.400 184.680 C 288.400 184.500,288.593 184.472,288.830 184.618 C 289.368 184.951,288.465 183.320,287.400 182.035 C 286.894 181.426,286.821 181.190,287.200 181.394 C 287.530 181.572,287.395 181.324,286.900 180.843 C 286.405 180.362,286.000 179.785,286.000 179.561 C 286.000 179.336,285.808 179.271,285.573 179.417 C 285.339 179.562,285.180 179.437,285.221 179.140 C 285.371 178.042,285.190 177.559,284.732 177.842 C 284.415 178.038,284.348 177.911,284.525 177.450 C 284.684 177.036,284.564 176.684,284.219 176.552 C 283.906 176.432,283.748 176.080,283.867 175.770 C 283.986 175.460,283.806 175.100,283.467 174.970 C 283.128 174.840,282.940 174.500,283.050 174.215 C 283.159 173.930,282.788 173.334,282.224 172.891 C 281.661 172.447,281.200 171.796,281.200 171.442 C 281.200 171.089,281.020 170.800,280.800 170.800 C 280.580 170.800,280.384 170.395,280.364 169.900 C 280.314 168.672,278.234 164.976,277.662 165.100 C 277.408 165.155,277.221 165.065,277.247 164.900 C 277.386 164.024,277.118 163.262,276.400 162.492 C 275.960 162.020,275.600 161.356,275.600 161.017 C 275.600 160.678,275.420 160.400,275.200 160.400 C 274.980 160.400,274.800 159.860,274.800 159.200 C 274.800 158.540,274.620 158.000,274.400 158.000 C 274.180 158.000,274.000 157.712,274.000 157.360 C 274.000 157.009,273.459 156.216,272.799 155.599 C 272.138 154.982,271.560 154.022,271.514 153.467 C 271.468 152.912,271.288 152.545,271.115 152.652 C 270.829 152.829,270.620 151.890,270.763 151.070 C 270.794 150.889,270.635 150.855,270.410 150.994 C 270.184 151.133,270.000 151.044,270.000 150.795 C 270.000 150.546,269.728 150.071,269.396 149.739 C 269.064 149.407,268.898 148.966,269.026 148.758 C 269.154 148.550,269.021 148.430,268.730 148.490 C 268.438 148.551,268.245 148.375,268.300 148.100 C 268.355 147.825,268.220 147.600,268.000 147.600 C 267.780 147.600,267.600 147.126,267.600 146.547 C 267.600 145.967,267.213 145.158,266.739 144.747 C 266.156 144.242,266.059 143.996,266.439 143.987 C 266.857 143.978,266.823 143.840,266.306 143.448 C 265.925 143.158,265.708 142.826,265.824 142.709 C 265.941 142.593,265.476 141.938,264.792 141.253 C 264.107 140.569,263.651 139.841,263.777 139.637 C 263.904 139.432,263.723 138.980,263.375 138.632 C 263.027 138.285,262.880 138.000,263.048 138.000 C 263.216 138.000,263.004 137.717,262.576 137.370 C 262.149 137.024,262.025 136.855,262.300 136.994 C 263.072 137.385,262.894 136.922,261.900 135.957 C 261.405 135.476,261.223 135.208,261.495 135.362 C 261.822 135.546,261.914 135.440,261.764 135.052 C 261.640 134.727,261.285 134.365,260.976 134.246 C 260.665 134.127,260.518 133.757,260.648 133.419 C 260.786 133.059,260.614 132.704,260.232 132.557 C 259.874 132.420,258.768 130.624,257.774 128.567 C 256.780 126.510,255.799 124.723,255.594 124.596 C 255.389 124.470,254.928 123.699,254.570 122.883 C 254.212 122.067,253.720 120.950,253.478 120.400 C 253.236 119.850,252.580 118.867,252.019 118.215 C 251.280 117.357,251.220 117.188,251.800 117.603 C 252.476 118.087,252.461 118.019,251.700 117.162 C 251.205 116.605,250.800 115.957,250.800 115.723 C 250.800 115.489,250.536 115.079,250.213 114.811 C 249.890 114.543,249.648 114.206,249.676 114.062 C 249.761 113.624,249.114 112.241,248.477 111.500 C 248.147 111.115,248.025 110.800,248.208 110.800 C 248.390 110.800,248.122 110.356,247.612 109.812 C 247.101 109.269,246.575 108.892,246.442 108.974 C 246.309 109.056,246.172 108.651,246.137 108.074 C 246.102 107.497,245.877 106.959,245.637 106.879 C 245.397 106.799,245.200 106.465,245.200 106.138 C 245.200 105.811,244.928 105.271,244.596 104.939 C 244.264 104.607,244.091 104.177,244.210 103.983 C 244.334 103.783,236.695 103.621,226.443 103.608 C 208.849 103.586,208.453 103.602,208.207 104.379 C 207.916 105.295,197.805 113.600,196.981 113.600 C 196.322 113.600,179.218 130.624,165.629 144.804 C 160.255 150.412,152.250 158.629,147.841 163.064 C 143.431 167.500,139.761 171.316,139.685 171.545 C 139.550 171.950,140.060 172.674,145.215 179.400 C 146.564 181.160,148.057 183.126,148.534 183.769 C 149.010 184.411,150.490 186.301,151.823 187.969 C 153.156 189.636,154.822 191.810,155.525 192.800 C 156.229 193.790,157.479 195.443,158.302 196.474 C 159.126 197.505,161.690 200.815,164.000 203.830 C 166.310 206.845,168.982 210.322,169.939 211.556 C 170.895 212.790,172.695 215.132,173.939 216.761 C 178.790 223.113,180.668 225.561,182.400 227.791 C 185.358 231.599,186.017 232.461,190.395 238.251 C 192.702 241.303,194.919 244.160,195.321 244.600 C 195.724 245.040,196.390 245.940,196.801 246.600 C 197.213 247.260,198.344 248.461,199.315 249.270 C 200.286 250.078,201.405 251.428,201.802 252.270 C 202.759 254.299,203.151 254.830,212.085 266.202 C 218.623 274.525,222.929 278.904,230.965 285.409 C 232.046 286.284,233.245 287.515,233.628 288.144 C 234.304 289.253,234.338 289.263,234.762 288.470 C 235.289 287.486,234.659 285.447,233.906 285.698 C 233.637 285.788,232.798 285.172,232.043 284.331 C 231.287 283.489,230.422 282.800,230.120 282.800 C 229.480 282.800,217.200 270.616,217.200 269.981 C 217.200 269.746,216.989 269.683,216.732 269.842 C 216.433 270.027,216.343 269.925,216.482 269.562 C 216.613 269.222,215.837 268.109,214.554 266.797 C 213.373 265.588,212.406 264.412,212.404 264.181 C 212.402 263.951,211.680 263.059,210.800 262.200 C 209.920 261.341,209.200 260.444,209.200 260.207 C 209.200 259.970,208.840 259.517,208.400 259.200 C 207.960 258.883,207.600 258.415,207.600 258.161 C 207.600 257.906,207.332 257.476,207.004 257.204 C 206.677 256.932,206.495 256.570,206.600 256.400 C 206.874 255.957,205.791 255.148,205.399 255.503 C 205.219 255.667,205.189 255.595,205.331 255.345 C 205.474 255.095,205.323 254.668,204.996 254.396 C 204.560 254.035,204.400 253.054,204.400 250.751 C 204.400 248.917,204.233 247.600,204.000 247.600 C 203.735 247.600,203.600 226.493,203.600 185.080 C 203.600 116.000,203.553 117.235,205.990 122.570 C 206.534 123.761,207.082 124.673,207.207 124.596 C 207.332 124.519,207.462 124.826,207.496 125.280 C 207.530 125.733,207.892 126.485,208.301 126.952 C 208.709 127.418,209.467 128.655,209.985 129.700 C 210.502 130.745,211.077 131.600,211.263 131.600 C 211.448 131.600,211.600 131.958,211.600 132.397 C 211.600 132.835,211.960 133.418,212.400 133.693 C 212.840 133.968,213.200 134.605,213.200 135.109 C 213.200 135.613,213.469 136.128,213.798 136.254 C 214.126 136.381,214.296 136.645,214.174 136.842 C 214.052 137.039,214.143 137.200,214.376 137.200 C 214.609 137.200,214.800 137.658,214.800 138.218 C 214.800 138.778,215.253 139.690,215.808 140.244 C 216.362 140.798,216.694 141.448,216.546 141.688 C 216.398 141.927,216.455 142.013,216.673 141.879 C 217.172 141.570,218.893 144.726,218.538 145.300 C 218.378 145.559,218.469 145.605,218.771 145.418 C 219.114 145.206,219.224 145.365,219.133 145.937 C 219.057 146.406,219.346 147.042,219.800 147.411 C 220.240 147.767,220.356 147.934,220.059 147.780 C 219.678 147.584,219.714 147.803,220.183 148.517 C 220.549 149.076,221.104 149.631,221.417 149.751 C 221.730 149.871,221.889 150.223,221.770 150.533 C 221.651 150.843,221.831 151.203,222.170 151.333 C 222.525 151.469,222.687 151.830,222.552 152.181 C 222.415 152.539,222.584 152.896,222.958 153.039 C 223.311 153.175,223.600 153.539,223.600 153.848 C 223.600 154.484,224.340 155.888,225.124 156.737 C 225.412 157.049,225.950 158.001,226.318 158.853 C 226.687 159.704,227.126 160.400,227.294 160.400 C 227.462 160.400,227.600 160.760,227.600 161.200 C 227.600 161.640,227.780 162.000,228.000 162.000 C 228.220 162.000,228.400 162.360,228.400 162.800 C 228.400 163.240,228.580 163.600,228.800 163.600 C 229.020 163.600,229.200 163.903,229.200 164.274 C 229.200 164.645,229.542 165.320,229.961 165.774 C 231.009 166.911,232.400 169.485,232.400 170.286 C 232.400 170.651,232.805 171.394,233.300 171.939 C 233.795 172.483,233.930 172.775,233.600 172.588 C 233.084 172.294,233.076 172.341,233.545 172.919 C 233.845 173.289,234.295 173.474,234.545 173.331 C 234.795 173.189,234.865 173.221,234.699 173.403 C 234.534 173.586,234.714 174.096,235.099 174.536 C 235.618 175.130,235.644 175.260,235.200 175.039 C 234.867 174.874,234.918 175.001,235.315 175.325 C 235.708 175.647,235.995 176.065,235.951 176.255 C 235.824 176.817,236.460 178.132,237.360 179.165 C 237.866 179.746,237.962 180.013,237.600 179.837 C 237.270 179.677,237.623 180.098,238.385 180.773 C 239.147 181.448,239.569 182.000,239.324 182.000 C 238.723 182.000,240.673 185.866,241.418 186.152 C 241.738 186.274,242.000 186.571,242.000 186.811 C 242.000 187.051,241.792 187.119,241.538 186.962 C 241.252 186.785,241.185 186.852,241.362 187.138 C 241.519 187.392,241.842 187.600,242.080 187.600 C 242.537 187.600,243.566 188.776,243.587 189.324 C 243.594 189.502,243.375 189.533,243.100 189.394 C 242.825 189.255,242.933 189.412,243.340 189.744 C 243.747 190.075,243.974 190.518,243.844 190.728 C 243.715 190.938,243.875 191.330,244.200 191.600 C 244.525 191.870,244.692 192.252,244.570 192.448 C 244.449 192.645,244.630 192.913,244.972 193.045 C 245.315 193.176,245.508 193.425,245.402 193.597 C 245.296 193.769,245.474 194.129,245.797 194.398 C 246.121 194.666,247.064 196.262,247.893 197.943 C 248.722 199.624,249.535 201.060,249.700 201.133 C 249.865 201.207,250.000 201.568,250.000 201.937 C 250.000 202.306,250.360 202.832,250.800 203.107 C 251.240 203.382,251.600 203.965,251.600 204.403 C 251.600 204.842,251.780 205.200,252.000 205.200 C 252.220 205.200,252.400 205.560,252.400 206.000 C 252.400 206.440,252.580 206.800,252.800 206.800 C 253.020 206.800,253.200 207.160,253.200 207.600 C 253.200 208.040,253.380 208.400,253.600 208.400 C 253.820 208.400,254.000 208.760,254.000 209.200 C 254.000 209.640,254.153 210.000,254.340 210.000 C 254.527 210.000,255.291 211.215,256.038 212.700 C 256.785 214.185,257.532 215.460,257.698 215.533 C 257.864 215.607,258.000 216.012,258.000 216.433 C 258.000 216.855,258.180 217.200,258.400 217.200 C 258.620 217.200,258.800 217.481,258.800 217.824 C 258.800 218.167,258.950 218.355,259.133 218.241 C 259.317 218.128,259.467 218.277,259.467 218.573 C 259.467 219.493,260.791 221.954,261.513 222.375 C 262.064 222.697,262.081 222.781,261.600 222.801 C 261.164 222.820,261.246 223.032,261.900 223.577 C 262.861 224.379,263.132 225.041,262.300 224.555 C 262.025 224.394,262.143 224.653,262.562 225.131 C 262.981 225.609,263.566 226.000,263.862 226.000 C 264.158 226.000,264.400 226.281,264.400 226.624 C 264.400 226.994,264.197 227.142,263.900 226.989 C 263.625 226.847,263.850 227.102,264.400 227.556 C 264.950 228.011,265.190 228.386,264.934 228.391 C 264.337 228.403,266.043 231.828,267.059 232.655 C 267.466 232.987,267.556 233.134,267.259 232.980 C 266.888 232.790,266.934 233.033,267.405 233.751 C 267.783 234.328,268.341 234.800,268.646 234.800 C 268.951 234.800,269.200 234.991,269.200 235.224 C 269.200 235.457,268.975 235.518,268.700 235.359 C 268.425 235.201,268.650 235.579,269.200 236.200 C 269.750 236.821,269.992 237.210,269.737 237.064 C 269.388 236.864,269.387 237.036,269.731 237.765 C 269.982 238.297,270.287 238.670,270.410 238.594 C 270.533 238.518,270.663 238.845,270.699 239.322 C 270.735 239.798,270.952 240.251,271.182 240.327 C 271.412 240.404,271.600 240.723,271.600 241.037 C 271.600 241.351,272.140 242.172,272.800 242.863 C 273.460 243.554,274.000 244.542,274.000 245.059 C 274.000 245.577,274.180 246.000,274.400 246.000 C 274.620 246.000,274.800 246.283,274.800 246.629 C 274.800 246.974,275.072 247.529,275.404 247.861 C 275.736 248.193,275.888 248.658,275.742 248.894 C 275.585 249.149,275.664 249.207,275.938 249.038 C 276.212 248.869,276.400 249.007,276.400 249.376 C 276.400 249.719,276.580 250.000,276.800 250.000 C 277.020 250.000,277.200 250.360,277.200 250.800 C 277.200 251.240,277.380 251.600,277.600 251.600 C 277.820 251.600,278.000 251.960,278.000 252.400 C 278.000 252.840,278.180 253.200,278.400 253.200 C 278.620 253.200,278.800 253.560,278.800 254.000 C 278.800 254.440,278.980 254.800,279.200 254.800 C 279.420 254.800,279.600 255.160,279.600 255.600 C 279.600 256.040,279.751 256.400,279.935 256.400 C 280.119 256.400,280.882 257.570,281.630 259.000 C 282.379 260.430,283.098 261.600,283.229 261.600 C 283.360 261.600,283.467 261.837,283.467 262.126 C 283.467 262.762,285.219 265.200,285.675 265.200 C 285.854 265.200,286.000 265.391,286.000 265.624 C 286.000 265.857,285.775 265.920,285.500 265.765 C 285.225 265.609,285.405 265.876,285.900 266.357 C 286.807 267.238,287.110 267.838,286.437 267.423 C 286.238 267.300,286.281 267.636,286.533 268.169 C 286.839 268.818,287.089 268.984,287.289 268.670 C 287.460 268.401,287.590 268.706,287.594 269.381 C 287.598 270.158,288.045 271.033,288.900 271.941 C 289.615 272.700,289.992 273.203,289.737 273.060 C 289.388 272.863,289.387 273.036,289.731 273.765 C 289.982 274.297,290.325 274.646,290.493 274.542 C 290.662 274.438,290.800 274.734,290.800 275.200 C 290.800 275.698,290.976 275.939,291.227 275.783 C 291.461 275.638,291.620 275.763,291.579 276.060 C 291.429 277.158,291.610 277.641,292.068 277.358 C 292.385 277.162,292.452 277.289,292.275 277.750 C 292.113 278.171,292.239 278.517,292.607 278.658 C 292.933 278.783,293.200 279.147,293.200 279.466 C 293.200 279.786,293.392 279.929,293.627 279.783 C 293.861 279.638,294.020 279.763,293.979 280.060 C 293.833 281.126,294.007 281.643,294.427 281.383 C 294.662 281.238,294.798 281.362,294.730 281.660 C 294.542 282.484,296.785 286.800,297.402 286.800 C 297.700 286.800,298.002 287.187,298.072 287.659 C 298.259 288.917,299.529 289.599,300.034 288.713 C 300.496 287.902,344.497 287.587,344.994 288.390 C 345.160 288.659,337.779 288.829,322.922 288.900 L 300.600 289.007 323.129 289.103 C 342.212 289.185,345.745 289.113,346.229 288.629 C 346.948 287.909,347.043 282.148,346.339 281.913 C 346.016 281.805,345.904 280.126,345.964 276.280 C 346.030 271.984,345.935 270.800,345.524 270.800 C 345.104 270.801,345.024 269.054,345.122 262.000 C 345.204 256.022,345.108 253.200,344.822 253.200 C 344.225 253.200,344.229 139.353,344.826 138.984 C 345.110 138.809,345.224 135.865,345.168 130.151 C 345.122 125.438,345.230 121.451,345.406 121.291 C 345.583 121.131,345.582 121.253,345.402 121.562 C 345.183 121.940,345.228 122.030,345.538 121.838 C 345.847 121.647,346.000 119.907,346.000 116.576 C 346.000 113.525,346.155 111.600,346.400 111.600 C 346.638 111.600,346.800 110.087,346.800 107.862 C 346.800 104.153,346.304 102.784,344.969 102.806 C 344.766 102.809,344.870 102.987,345.200 103.200 C 345.606 103.463,344.316 103.588,341.200 103.588 C 338.084 103.588,336.794 103.463,337.200 103.200 C 337.530 102.987,337.603 102.809,337.362 102.806 C 337.121 102.803,336.581 103.191,336.162 103.669 M193.006 104.500 C 192.847 104.995,192.658 105.652,192.585 105.960 C 192.513 106.268,192.246 106.648,191.992 106.805 C 191.739 106.961,191.592 107.249,191.666 107.445 C 191.740 107.640,191.395 107.978,190.900 108.195 C 190.405 108.412,190.000 108.828,190.000 109.118 C 190.000 109.409,189.816 109.533,189.590 109.394 C 189.365 109.255,189.206 109.289,189.237 109.470 C 189.408 110.454,189.122 111.255,188.516 111.487 C 187.314 111.949,183.600 115.953,183.600 116.788 C 183.600 117.597,182.111 119.242,179.704 121.093 C 178.991 121.641,178.524 122.277,178.666 122.506 C 178.808 122.736,178.740 122.810,178.515 122.671 C 177.997 122.351,176.696 123.752,177.099 124.197 C 177.265 124.379,177.201 124.415,176.958 124.276 C 176.531 124.033,171.420 129.049,169.801 131.300 C 169.366 131.905,168.780 132.400,168.499 132.400 C 167.888 132.400,161.458 138.750,161.086 139.721 C 160.942 140.095,160.549 140.400,160.213 140.400 C 159.876 140.400,159.600 140.651,159.600 140.958 C 159.600 141.265,159.128 141.940,158.551 142.458 C 156.661 144.155,155.589 145.322,155.762 145.495 C 155.855 145.588,155.228 146.299,154.369 147.076 C 153.510 147.852,152.923 148.675,153.065 148.905 C 153.207 149.135,153.142 149.212,152.921 149.075 C 152.555 148.848,146.800 154.427,146.800 155.009 C 146.800 155.423,145.687 156.400,145.215 156.400 C 144.651 156.400,142.239 158.800,141.890 159.709 C 141.744 160.089,141.349 160.400,141.013 160.400 C 140.667 160.400,140.400 160.748,140.400 161.200 C 140.400 161.733,140.133 162.000,139.600 162.000 C 139.160 162.000,138.800 162.202,138.800 162.450 C 138.800 162.697,137.453 164.158,135.806 165.698 C 134.159 167.237,132.913 168.659,133.036 168.858 C 133.159 169.057,133.021 169.170,132.730 169.110 C 132.438 169.049,132.245 169.225,132.300 169.500 C 132.355 169.775,132.175 169.955,131.900 169.900 C 131.625 169.845,131.449 170.038,131.510 170.330 C 131.570 170.621,131.459 170.760,131.263 170.639 C 130.791 170.347,129.512 171.779,129.899 172.166 C 130.065 172.331,129.930 172.407,129.600 172.333 C 129.268 172.260,129.049 172.436,129.110 172.730 C 129.170 173.021,129.057 173.159,128.859 173.036 C 128.502 172.816,125.748 175.579,124.205 177.705 C 123.768 178.307,123.093 178.800,122.705 178.800 C 122.267 178.800,122.000 179.103,122.000 179.600 C 122.000 180.117,121.733 180.400,121.247 180.400 C 120.830 180.400,120.400 180.757,120.284 181.200 C 120.169 181.640,119.788 182.000,119.437 182.000 C 119.067 182.000,118.800 182.335,118.800 182.800 C 118.800 183.240,118.620 183.600,118.400 183.600 C 118.180 183.600,117.985 183.915,117.967 184.300 C 117.948 184.685,116.823 185.923,115.467 187.052 C 114.110 188.181,113.049 189.319,113.110 189.582 C 113.170 189.845,113.065 189.964,112.875 189.846 C 112.402 189.554,109.507 192.574,109.892 192.959 C 110.061 193.128,109.930 193.207,109.600 193.133 C 109.268 193.060,109.049 193.236,109.110 193.530 C 109.170 193.821,109.059 193.960,108.863 193.839 C 108.391 193.547,107.112 194.979,107.499 195.366 C 107.665 195.531,107.530 195.607,107.200 195.533 C 106.870 195.460,106.645 195.625,106.700 195.900 C 106.755 196.175,106.575 196.355,106.300 196.300 C 106.025 196.245,105.849 196.438,105.910 196.730 C 105.970 197.021,105.859 197.160,105.663 197.039 C 105.180 196.741,103.920 198.179,104.299 198.597 C 104.465 198.779,104.399 198.814,104.153 198.674 C 103.720 198.427,102.521 199.437,102.394 200.155 C 101.954 202.649,109.985 194.929,137.962 165.963 C 144.210 159.493,152.580 150.955,156.562 146.988 C 168.258 135.336,186.361 116.426,188.335 113.800 C 188.996 112.920,189.889 111.840,190.318 111.400 C 191.431 110.258,195.600 104.385,195.600 103.958 C 195.600 103.121,193.292 103.603,193.006 104.500 M103.461 107.196 C 103.093 109.035,104.277 110.769,105.049 109.521 C 105.221 109.243,105.140 109.190,104.835 109.378 C 104.536 109.563,104.375 109.471,104.421 109.140 C 104.769 106.602,103.923 104.887,103.461 107.196 M59.898 108.235 C 59.734 108.399,59.600 108.863,59.600 109.267 C 59.600 109.670,59.458 110.000,59.285 110.000 C 58.679 110.000,58.861 111.538,59.495 111.781 C 60.187 112.047,60.808 111.366,60.754 110.400 C 60.687 109.202,60.189 107.944,59.898 108.235 M102.580 115.765 C 102.274 117.398,102.607 118.640,103.436 118.958 C 103.769 119.086,103.941 119.028,103.818 118.830 C 103.695 118.631,103.821 118.377,104.098 118.266 C 104.445 118.126,104.415 118.052,104.000 118.025 C 103.467 117.992,103.467 117.945,104.000 117.600 C 104.400 117.342,104.433 117.210,104.100 117.206 C 103.796 117.202,103.600 116.650,103.600 115.800 C 103.600 114.006,102.915 113.983,102.580 115.765 M196.196 116.807 C 196.058 117.030,195.749 117.092,195.511 116.945 C 195.249 116.783,195.192 116.863,195.366 117.145 C 195.525 117.402,195.823 117.509,196.028 117.383 C 196.232 117.256,196.400 117.624,196.400 118.200 C 196.400 118.796,196.228 119.141,196.000 119.000 C 195.780 118.864,195.600 118.858,195.600 118.986 C 195.600 119.115,196.016 119.378,196.525 119.572 C 197.502 119.943,197.699 131.575,196.735 131.939 C 196.532 132.015,196.599 132.365,196.883 132.716 C 197.274 133.198,197.278 133.280,196.900 133.053 C 196.625 132.888,196.400 132.858,196.400 132.986 C 196.400 133.115,196.878 133.401,197.461 133.623 L 198.523 134.027 198.261 139.477 C 198.118 142.474,198.000 167.488,198.000 195.063 C 198.000 222.638,197.864 245.200,197.698 245.200 C 197.531 245.200,197.146 244.615,196.841 243.900 C 196.111 242.190,194.796 240.761,194.242 241.076 C 193.999 241.215,193.932 241.182,194.094 241.004 C 194.255 240.825,194.075 240.423,193.694 240.110 C 193.312 239.797,193.260 239.677,193.579 239.843 C 193.916 240.019,193.779 239.613,193.248 238.868 C 192.748 238.165,192.168 237.696,191.960 237.825 C 191.751 237.954,191.630 237.821,191.690 237.530 C 191.751 237.238,191.562 237.049,191.270 237.110 C 190.979 237.170,190.845 237.051,190.973 236.844 C 191.100 236.637,191.069 236.408,190.902 236.334 C 190.736 236.260,190.326 235.660,189.990 235.000 C 189.655 234.340,188.980 233.622,188.490 233.405 C 188.001 233.188,187.600 232.777,187.600 232.491 C 187.600 231.669,186.363 230.000,185.754 230.000 C 185.425 230.000,185.200 229.581,185.200 228.969 C 185.200 228.288,184.655 227.414,183.600 226.400 C 182.720 225.554,182.000 224.579,182.000 224.231 C 182.000 223.884,181.724 223.600,181.387 223.600 C 181.051 223.600,180.658 223.285,180.515 222.900 C 180.372 222.515,179.928 221.909,179.528 221.553 C 179.127 221.197,178.800 220.678,178.800 220.400 C 178.800 220.122,178.395 219.543,177.900 219.113 C 177.405 218.684,177.000 218.194,177.000 218.025 C 177.000 217.450,175.413 215.600,174.919 215.600 C 174.487 215.600,173.437 214.138,173.481 213.600 C 173.529 213.031,173.050 212.400,172.571 212.400 C 172.094 212.400,170.921 210.806,171.153 210.474 C 171.202 210.404,170.806 210.005,170.275 209.587 C 169.743 209.169,169.066 208.236,168.771 207.514 C 168.475 206.791,167.551 205.539,166.717 204.731 C 165.883 203.924,165.200 203.051,165.200 202.792 C 165.200 202.533,164.660 201.817,164.000 201.200 C 163.340 200.583,162.800 199.863,162.800 199.600 C 162.800 199.337,162.260 198.617,161.600 198.000 C 160.940 197.383,160.398 196.636,160.396 196.340 C 160.394 196.043,159.854 195.375,159.196 194.855 C 158.538 194.335,158.000 193.639,158.000 193.308 C 158.000 192.978,157.265 192.015,156.367 191.169 C 155.469 190.323,154.680 189.309,154.614 188.915 C 154.548 188.522,154.279 188.249,154.017 188.310 C 153.755 188.370,153.640 188.259,153.761 188.063 C 153.882 187.867,153.625 187.385,153.191 186.991 C 152.756 186.598,152.398 186.079,152.396 185.838 C 152.393 185.597,151.681 184.657,150.813 183.750 C 149.945 182.842,149.321 182.012,149.428 181.906 C 149.534 181.799,148.855 181.020,147.918 180.173 C 146.981 179.327,146.211 178.446,146.207 178.217 C 146.203 177.988,145.615 177.188,144.900 176.441 C 144.185 175.693,143.600 174.878,143.600 174.629 C 143.600 174.380,143.240 173.917,142.800 173.600 C 141.814 172.889,141.781 172.096,142.703 171.247 C 143.089 170.891,143.660 170.105,143.970 169.500 C 144.281 168.895,144.730 168.397,144.968 168.394 C 145.205 168.391,146.120 167.500,147.000 166.414 C 147.880 165.328,148.804 164.431,149.054 164.420 C 149.565 164.397,150.991 162.407,150.509 162.388 C 150.339 162.381,150.515 162.192,150.900 161.968 C 151.285 161.744,151.600 161.384,151.600 161.170 C 151.600 160.646,155.068 157.200,155.595 157.200 C 156.137 157.200,163.600 149.737,163.600 149.195 C 163.600 148.967,164.455 148.026,165.500 147.104 C 168.345 144.595,177.200 135.545,177.200 135.147 C 177.200 134.956,177.478 134.800,177.818 134.800 C 178.158 134.800,178.878 134.358,179.418 133.818 C 179.958 133.278,180.400 132.558,180.400 132.218 C 180.400 131.878,180.580 131.600,180.800 131.600 C 181.020 131.600,181.200 131.317,181.200 130.971 C 181.200 130.270,182.129 129.200,182.737 129.200 C 182.954 129.200,184.178 127.985,185.457 126.500 C 186.736 125.015,188.506 123.241,189.391 122.558 C 190.276 121.875,190.951 121.097,190.890 120.828 C 190.830 120.560,190.941 120.440,191.137 120.561 C 191.620 120.859,192.880 119.421,192.501 119.003 C 192.335 118.821,192.414 118.795,192.676 118.945 C 192.955 119.105,193.616 118.635,194.276 117.809 C 195.265 116.570,196.856 115.739,196.196 116.807 M60.400 119.424 C 60.400 121.003,60.266 121.564,59.938 121.362 C 59.652 121.185,59.585 121.252,59.762 121.538 C 60.725 123.097,61.745 121.442,61.369 118.931 C 61.001 116.478,60.400 116.784,60.400 119.424 M203.298 184.562 C 203.230 225.991,203.059 247.600,202.798 247.600 C 202.355 247.600,202.214 121.919,202.656 121.478 C 203.343 120.790,203.393 125.726,203.298 184.562 M101.789 126.953 C 101.444 129.711,101.820 131.556,102.702 131.426 C 103.435 131.319,103.911 130.400,103.233 130.400 C 102.967 130.400,102.800 129.407,102.800 127.824 C 102.800 124.611,102.151 124.052,101.789 126.953 M61.495 130.533 C 61.333 130.936,61.200 132.871,61.200 134.833 C 61.200 136.944,61.037 138.400,60.800 138.400 C 60.159 138.400,60.339 139.202,61.040 139.471 C 62.000 139.839,62.391 138.869,62.359 136.200 C 62.316 132.643,61.857 129.634,61.495 130.533 M106.255 205.732 C 101.483 210.820,101.138 211.337,102.236 211.759 C 103.050 212.071,103.600 211.728,103.600 210.910 C 103.600 210.556,103.718 210.385,103.863 210.530 C 104.231 210.898,105.200 210.023,105.200 209.322 C 105.200 208.639,106.155 207.600,106.782 207.600 C 107.361 207.600,110.800 204.150,110.800 203.570 C 110.800 203.322,111.700 204.038,112.800 205.161 C 113.900 206.285,114.800 207.385,114.800 207.606 C 114.800 207.827,115.340 208.572,116.000 209.263 C 116.660 209.954,117.206 210.717,117.213 210.959 C 117.220 211.202,117.940 212.115,118.813 212.989 C 119.686 213.863,120.400 214.711,120.400 214.874 C 120.400 215.036,121.120 215.882,122.000 216.753 C 122.880 217.624,123.600 218.503,123.600 218.705 C 123.600 218.907,124.320 219.807,125.200 220.705 C 126.791 222.328,127.255 223.110,126.300 222.559 C 126.025 222.400,126.565 223.033,127.500 223.966 C 128.435 224.899,129.200 225.838,129.200 226.054 C 129.200 226.270,129.411 226.317,129.668 226.158 C 129.979 225.966,130.053 226.084,129.889 226.512 C 129.727 226.934,130.091 227.548,130.947 228.300 C 131.665 228.930,132.193 229.621,132.122 229.835 C 132.050 230.050,132.803 231.022,133.796 231.996 C 134.788 232.970,135.600 233.979,135.600 234.238 C 135.600 234.498,136.138 235.135,136.796 235.655 C 137.454 236.175,137.994 236.983,137.996 237.451 C 138.000 238.399,138.910 239.357,139.370 238.897 C 139.533 238.733,139.607 238.870,139.533 239.200 C 139.460 239.530,139.625 239.755,139.900 239.700 C 140.175 239.645,140.355 239.825,140.300 240.100 C 140.245 240.375,140.470 240.540,140.800 240.467 C 141.130 240.393,141.265 240.469,141.099 240.634 C 140.934 240.800,141.114 241.296,141.499 241.736 C 141.998 242.306,142.027 242.438,141.600 242.192 C 141.084 241.895,141.076 241.940,141.545 242.519 C 141.845 242.889,142.255 243.090,142.455 242.966 C 142.656 242.842,142.770 242.979,142.710 243.270 C 142.649 243.564,142.868 243.740,143.200 243.667 C 143.530 243.593,143.662 243.671,143.494 243.839 C 143.326 244.007,143.686 244.680,144.294 245.334 C 144.902 245.988,145.130 246.371,144.800 246.185 C 144.284 245.894,144.276 245.941,144.745 246.519 C 145.045 246.889,145.478 247.075,145.707 246.934 C 145.936 246.792,146.008 246.864,145.866 247.093 C 145.725 247.322,145.877 247.732,146.204 248.004 C 146.532 248.276,146.800 248.715,146.800 248.979 C 146.800 249.681,148.601 251.261,148.994 250.904 C 149.178 250.737,149.208 250.809,149.062 251.065 C 148.913 251.325,149.282 251.893,149.898 252.352 C 150.504 252.805,150.753 253.180,150.451 253.187 C 150.010 253.198,150.000 253.317,150.396 253.796 C 150.668 254.123,151.055 254.290,151.255 254.166 C 151.456 254.042,151.572 254.089,151.513 254.270 C 151.337 254.813,152.645 256.419,153.000 256.097 C 153.181 255.934,153.208 256.010,153.061 256.266 C 152.717 256.869,154.739 259.285,155.298 258.939 C 155.549 258.784,155.606 258.866,155.438 259.138 C 155.264 259.420,155.435 259.612,155.876 259.632 C 156.301 259.650,156.392 259.747,156.097 259.866 C 155.407 260.144,156.861 262.155,158.419 263.075 C 159.238 263.559,159.600 264.086,159.600 264.798 C 159.600 265.365,159.958 266.081,160.400 266.400 C 160.840 266.717,161.200 267.220,161.200 267.517 C 161.200 268.166,161.940 268.946,162.900 269.310 C 163.285 269.456,163.600 269.958,163.600 270.427 C 163.600 270.896,164.140 271.783,164.800 272.400 C 165.460 273.017,166.000 273.732,166.000 273.989 C 166.000 274.573,166.779 275.361,167.700 275.710 C 168.085 275.856,168.400 276.251,168.400 276.587 C 168.400 276.924,168.580 277.200,168.800 277.200 C 169.020 277.200,169.200 277.560,169.200 278.000 C 169.200 278.480,169.467 278.800,169.867 278.800 C 170.233 278.800,170.422 278.911,170.286 279.048 C 170.150 279.184,170.301 279.558,170.623 279.880 C 170.944 280.201,171.088 280.658,170.942 280.894 C 170.789 281.142,170.863 281.208,171.118 281.051 C 171.361 280.900,171.755 281.143,171.994 281.589 C 172.325 282.208,172.306 282.403,171.914 282.413 C 171.608 282.420,171.714 282.663,172.176 283.013 C 172.604 283.336,172.824 283.600,172.667 283.600 C 172.510 283.600,172.676 284.050,173.037 284.600 C 173.397 285.150,173.964 285.600,174.296 285.600 C 175.214 285.600,174.638 283.430,173.201 281.475 C 172.540 280.577,172.000 279.702,172.000 279.531 C 172.000 279.014,161.590 264.835,156.612 258.572 C 155.725 257.456,154.460 255.842,153.800 254.986 C 153.140 254.129,152.139 252.882,151.575 252.214 C 151.010 251.546,150.119 250.370,149.594 249.600 C 149.068 248.830,148.539 248.110,148.418 248.000 C 148.092 247.703,144.030 242.577,141.771 239.611 C 140.687 238.187,138.630 235.557,137.200 233.765 C 135.770 231.973,133.880 229.569,133.000 228.422 C 130.542 225.219,126.066 219.497,125.292 218.569 C 124.912 218.112,123.520 216.316,122.200 214.577 C 118.290 209.426,111.534 201.009,111.211 200.885 C 111.046 200.822,108.816 203.003,106.255 205.732 M101.812 201.717 C 101.641 202.112,101.613 202.547,101.751 202.684 C 102.157 203.090,102.484 202.520,102.297 201.731 C 102.132 201.033,102.110 201.032,101.812 201.717 M60.562 253.262 C 60.368 253.575,60.457 253.615,60.838 253.385 C 61.317 253.097,61.319 253.147,60.851 253.723 C 60.493 254.164,60.458 254.400,60.751 254.400 C 61.048 254.400,61.202 255.582,61.206 257.900 C 61.213 262.049,61.760 263.473,62.137 260.328 C 62.793 254.870,61.938 251.035,60.562 253.262 M101.785 262.046 C 101.422 263.192,101.971 268.065,102.432 267.780 C 102.635 267.655,102.800 266.203,102.800 264.553 C 102.800 262.387,102.928 261.632,103.262 261.838 C 103.548 262.015,103.615 261.948,103.438 261.662 C 102.979 260.919,102.076 261.129,101.785 262.046 M59.762 270.862 C 59.585 271.148,59.652 271.215,59.938 271.038 C 60.264 270.837,60.400 271.349,60.400 272.776 C 60.400 275.076,60.983 275.491,61.318 273.429 C 61.702 271.062,60.680 269.376,59.762 270.862 M102.669 275.259 C 102.402 276.280,102.768 278.400,103.211 278.400 C 103.383 278.400,103.585 277.500,103.661 276.400 C 103.804 274.343,103.115 273.552,102.669 275.259 M58.951 279.679 C 58.785 279.948,58.859 280.011,59.138 279.838 C 59.428 279.659,59.600 279.848,59.600 280.343 C 59.600 280.778,59.375 281.224,59.100 281.335 C 58.700 281.496,58.700 281.543,59.100 281.568 C 59.375 281.586,59.600 282.039,59.600 282.576 C 59.600 284.130,60.286 284.132,60.578 282.579 C 60.987 280.399,59.807 278.295,58.951 279.679 M103.435 283.454 C 103.100 284.327,103.593 286.852,104.044 286.573 C 104.240 286.452,104.400 285.733,104.400 284.976 C 104.400 284.219,104.591 283.600,104.824 283.600 C 105.057 283.600,105.136 283.420,105.000 283.200 C 104.617 282.581,103.713 282.727,103.435 283.454 M174.684 286.400 C 174.569 286.840,174.649 287.200,174.861 287.200 C 175.073 287.200,175.119 287.408,174.962 287.662 C 174.779 287.957,174.853 288.015,175.165 287.822 C 175.490 287.621,175.611 287.753,175.527 288.218 C 175.367 289.097,176.220 289.445,176.534 288.628 C 176.661 288.296,176.504 287.761,176.183 287.440 C 175.862 287.119,175.600 286.574,175.600 286.229 C 175.600 285.327,174.932 285.452,174.684 286.400 " stroke="none" fill="#bce4a5" fill-rule="evenodd"></path><path id="path1" d="M59.464 103.260 C 58.767 103.658,58.782 103.738,59.729 104.740 C 61.371 106.476,61.729 112.400,60.192 112.400 C 59.867 112.400,59.600 112.220,59.600 112.000 C 59.600 111.780,59.384 111.600,59.120 111.600 C 58.747 111.600,58.747 111.707,59.120 112.080 C 59.412 112.372,59.625 113.981,59.665 116.180 L 59.729 119.800 59.965 116.932 C 60.360 112.120,61.504 112.802,61.859 118.061 C 62.063 121.082,62.004 121.484,61.242 122.283 C 60.446 123.118,60.404 123.546,60.471 130.083 L 60.542 137.000 60.771 131.133 C 60.986 125.619,61.223 124.289,61.872 124.939 C 63.023 126.090,63.131 138.469,62.000 139.600 C 61.208 140.392,61.200 140.933,61.200 196.200 C 61.200 251.467,61.208 252.008,62.000 252.800 C 63.131 253.931,63.023 266.310,61.872 267.461 C 61.229 268.105,61.006 266.803,60.778 261.076 L 60.536 255.000 60.468 262.420 C 60.420 267.706,60.256 270.001,59.900 270.401 C 59.480 270.871,59.519 270.871,60.143 270.396 C 61.490 269.371,62.118 270.852,61.835 274.382 C 61.457 279.098,60.446 279.381,59.989 274.899 L 59.714 272.200 59.657 275.317 C 59.608 277.983,59.721 278.561,60.441 279.317 C 61.911 280.861,61.035 287.200,59.351 287.200 C 58.663 287.200,58.627 287.863,59.300 288.135 C 59.685 288.290,59.679 288.344,59.276 288.368 C 58.988 288.386,58.864 288.580,59.000 288.800 C 59.160 289.059,67.012 289.200,81.248 289.200 L 103.248 289.200 102.973 286.403 C 102.774 284.385,102.838 283.436,103.204 282.995 C 103.618 282.497,103.592 282.255,103.065 281.672 C 101.925 280.413,101.709 275.491,102.747 274.453 C 103.537 273.663,103.595 273.221,103.532 268.500 L 103.464 263.400 103.232 267.667 C 102.987 272.178,102.813 272.779,102.025 271.830 C 100.710 270.246,101.101 260.197,102.445 261.028 C 102.650 261.155,102.760 250.909,102.705 236.724 L 102.610 212.200 102.400 235.800 C 102.285 248.780,102.148 258.354,102.095 257.076 C 102.043 255.798,101.843 254.850,101.651 254.968 C 100.941 255.408,100.809 251.725,100.804 231.325 L 100.800 210.450 105.700 205.266 C 108.395 202.415,110.803 200.064,111.051 200.041 C 111.524 199.998,112.905 201.613,118.200 208.402 C 119.960 210.658,122.570 214.000,124.000 215.828 C 125.430 217.656,127.950 220.895,129.600 223.025 C 131.250 225.156,134.404 229.172,136.608 231.949 C 138.813 234.727,141.772 238.530,143.185 240.400 C 144.598 242.270,145.867 243.890,146.005 244.000 C 146.219 244.170,156.577 257.414,159.600 261.381 C 170.785 276.063,174.735 281.943,176.876 287.100 L 177.747 289.200 205.474 289.200 C 225.980 289.200,233.200 289.081,233.200 288.743 C 233.200 288.266,232.857 287.944,227.000 282.923 C 219.207 276.241,216.019 272.639,204.768 257.800 C 201.432 253.400,198.499 249.620,198.251 249.400 C 198.003 249.180,196.784 247.650,195.542 246.000 C 194.300 244.350,191.823 241.110,190.037 238.800 C 185.988 233.563,181.740 228.024,178.382 223.600 C 176.962 221.730,175.559 219.946,175.265 219.636 C 174.970 219.326,174.296 218.426,173.766 217.636 C 173.236 216.846,171.528 214.580,169.970 212.600 C 168.413 210.620,166.180 207.740,165.008 206.200 C 163.836 204.660,162.095 202.397,161.139 201.171 C 160.182 199.946,158.051 197.156,156.402 194.971 C 154.753 192.787,153.313 190.910,153.202 190.800 C 153.091 190.690,151.904 189.160,150.565 187.400 C 149.226 185.640,147.017 182.760,145.656 181.000 C 140.112 173.830,138.800 172.041,138.800 171.653 C 138.800 171.430,141.635 168.380,145.100 164.876 C 148.565 161.371,155.987 153.756,161.593 147.952 C 178.829 130.109,195.612 113.523,199.600 110.391 C 201.690 108.749,204.352 106.456,205.516 105.295 L 207.633 103.183 224.816 103.292 C 234.268 103.351,242.000 103.265,242.000 103.100 C 242.000 102.935,231.557 102.800,218.792 102.800 L 195.585 102.800 195.829 103.774 C 196.007 104.484,195.718 105.271,194.761 106.674 C 193.526 108.488,191.241 111.559,190.800 112.000 C 190.690 112.110,189.614 113.370,188.410 114.800 C 185.520 118.231,172.829 131.472,157.000 147.574 C 149.960 154.735,141.230 163.650,137.600 167.386 C 133.970 171.121,125.510 179.759,118.800 186.581 C 112.090 193.402,105.466 200.139,104.079 201.551 C 102.449 203.212,101.421 203.981,101.170 203.730 C 100.563 203.123,100.864 137.654,101.476 137.277 C 101.738 137.115,102.020 135.996,102.104 134.791 C 102.188 133.586,102.244 147.748,102.228 166.262 C 102.213 184.776,102.335 199.840,102.500 199.738 C 102.665 199.636,102.800 184.353,102.800 165.776 L 102.800 132.000 101.942 131.142 C 101.135 130.335,101.099 130.026,101.336 125.891 C 101.735 118.909,102.869 118.456,103.232 125.133 L 103.464 129.400 103.532 124.500 C 103.569 121.805,103.442 119.600,103.249 119.600 C 101.907 119.600,101.690 112.555,102.990 111.243 C 103.586 110.642,103.829 111.444,104.130 115.000 C 104.205 115.880,104.296 115.205,104.333 113.500 C 104.391 110.818,104.285 110.285,103.548 109.548 C 102.805 108.805,102.728 108.400,102.941 106.362 C 103.352 102.426,105.520 102.784,81.455 102.813 C 67.375 102.831,59.951 102.981,59.464 103.260 M103.600 103.100 C 103.600 103.269,103.960 103.632,104.400 103.907 C 104.840 104.182,105.200 104.269,105.200 104.100 C 105.200 103.931,104.840 103.568,104.400 103.293 C 103.960 103.018,103.600 102.931,103.600 103.100 M337.462 103.100 C 337.360 103.265,339.042 103.400,341.200 103.400 C 343.358 103.400,345.040 103.265,344.938 103.100 C 344.836 102.935,343.154 102.800,341.200 102.800 C 339.246 102.800,337.564 102.935,337.462 103.100 M335.802 104.396 C 335.495 104.894,335.641 110.000,335.963 110.000 C 336.093 110.000,336.200 108.650,336.200 107.000 C 336.200 103.837,336.190 103.770,335.802 104.396 M336.479 115.703 C 336.483 118.509,336.602 120.878,336.745 120.966 C 337.007 121.128,336.894 112.319,336.620 111.200 C 336.539 110.870,336.476 112.896,336.479 115.703 M181.262 119.058 C 180.306 120.048,179.597 120.930,179.686 121.019 C 179.775 121.109,180.731 120.286,181.809 119.191 C 182.888 118.096,183.597 117.213,183.385 117.229 C 183.173 117.245,182.218 118.068,181.262 119.058 M196.558 125.800 C 196.558 128.880,196.621 130.087,196.697 128.482 C 196.773 126.878,196.773 124.358,196.696 122.882 C 196.619 121.407,196.557 122.720,196.558 125.800 M337.373 131.400 C 337.373 136.900,337.430 139.205,337.499 136.523 C 337.568 133.841,337.568 129.341,337.499 126.523 C 337.430 123.705,337.374 125.900,337.373 131.400 M186.991 124.809 C 185.912 125.904,185.163 126.800,185.326 126.800 C 185.730 126.800,189.318 123.184,189.114 122.981 C 189.025 122.892,188.069 123.714,186.991 124.809 M169.260 131.051 C 168.743 131.602,168.396 132.129,168.489 132.222 C 168.582 132.315,169.174 131.854,169.804 131.196 C 170.434 130.538,170.781 130.011,170.575 130.024 C 170.369 130.038,169.777 130.500,169.260 131.051 M211.600 133.367 C 211.600 133.788,212.805 134.928,213.021 134.712 C 213.122 134.611,212.844 134.202,212.402 133.802 C 211.961 133.403,211.600 133.207,211.600 133.367 M197.394 189.200 C 197.394 219.670,197.442 232.135,197.500 216.900 C 197.558 201.665,197.558 176.735,197.500 161.500 C 197.442 146.265,197.394 158.730,197.394 189.200 M176.596 136.004 C 175.966 136.662,175.582 137.200,175.743 137.200 C 176.156 137.200,178.122 135.188,177.913 134.980 C 177.819 134.886,177.226 135.346,176.596 136.004 M158.060 142.251 C 157.543 142.802,157.196 143.329,157.289 143.422 C 157.382 143.515,157.974 143.054,158.604 142.396 C 159.234 141.738,159.581 141.211,159.375 141.224 C 159.169 141.238,158.577 141.700,158.060 142.251 M338.002 208.379 C 337.998 251.583,338.129 273.200,338.398 273.200 C 338.950 273.200,338.957 144.144,338.405 143.803 C 338.145 143.642,338.007 165.789,338.002 208.379 M165.391 147.209 C 164.312 148.304,163.563 149.200,163.726 149.200 C 164.130 149.200,167.718 145.584,167.514 145.381 C 167.425 145.292,166.469 146.114,165.391 147.209 M61.900 222.300 C 61.842 236.105,61.794 224.810,61.794 197.200 C 61.794 169.590,61.842 158.295,61.900 172.100 C 61.958 185.905,61.958 208.495,61.900 222.300 M145.660 155.442 C 145.362 155.778,145.199 156.132,145.295 156.229 C 145.392 156.326,145.798 156.044,146.198 155.602 C 146.597 155.161,146.761 154.807,146.562 154.815 C 146.363 154.824,145.957 155.105,145.660 155.442 M153.391 159.209 C 152.312 160.304,151.563 161.200,151.726 161.200 C 152.130 161.200,155.718 157.584,155.514 157.381 C 155.425 157.292,154.469 158.114,153.391 159.209 M147.393 166.007 C 146.537 166.883,145.970 167.600,146.132 167.600 C 146.540 167.600,149.319 164.786,149.114 164.581 C 149.023 164.489,148.248 165.131,147.393 166.007 M144.202 169.198 C 143.803 169.639,143.607 170.000,143.767 170.000 C 144.188 170.000,145.328 168.795,145.112 168.579 C 145.011 168.478,144.602 168.756,144.202 169.198 M123.660 177.451 C 123.143 178.002,122.796 178.529,122.889 178.622 C 122.982 178.715,123.574 178.254,124.204 177.596 C 124.834 176.938,125.181 176.411,124.975 176.424 C 124.769 176.438,124.177 176.900,123.660 177.451 M116.460 185.451 C 115.943 186.002,115.596 186.529,115.689 186.622 C 115.782 186.715,116.374 186.254,117.004 185.596 C 117.634 184.938,117.981 184.411,117.775 184.424 C 117.569 184.438,116.977 184.900,116.460 185.451 M105.802 208.398 C 105.403 208.839,105.207 209.200,105.367 209.200 C 105.788 209.200,106.928 207.995,106.712 207.779 C 106.611 207.678,106.202 207.956,105.802 208.398 M122.602 218.002 C 123.002 218.444,123.411 218.722,123.512 218.621 C 123.728 218.405,122.588 217.200,122.167 217.200 C 122.007 217.200,122.203 217.561,122.602 218.002 M309.693 222.800 C 309.968 223.240,310.331 223.600,310.500 223.600 C 310.669 223.600,310.582 223.240,310.307 222.800 C 310.032 222.360,309.669 222.000,309.500 222.000 C 309.331 222.000,309.418 222.360,309.693 222.800 M137.002 236.402 C 137.402 236.844,137.811 237.122,137.912 237.021 C 138.128 236.805,136.988 235.600,136.567 235.600 C 136.407 235.600,136.603 235.961,137.002 236.402 M207.600 258.167 C 207.600 258.588,208.805 259.728,209.021 259.512 C 209.122 259.411,208.844 259.002,208.402 258.602 C 207.961 258.203,207.600 258.007,207.600 258.167 M158.000 262.967 C 158.000 263.388,159.205 264.528,159.421 264.312 C 159.522 264.211,159.244 263.802,158.802 263.402 C 158.361 263.003,158.000 262.807,158.000 262.967 M222.800 275.743 C 222.800 276.156,224.812 278.122,225.020 277.913 C 225.114 277.819,224.654 277.226,223.996 276.596 C 223.338 275.966,222.800 275.582,222.800 275.743 M103.950 279.400 C 103.813 280.720,103.768 281.875,103.850 281.967 C 104.259 282.421,104.431 281.464,104.321 279.345 L 104.200 277.000 103.950 279.400 " stroke="none" fill="#7cdc54" fill-rule="evenodd"></path><path id="path2" d="M205.551 106.431 L 203.800 108.062 205.700 106.546 C 206.745 105.713,207.600 104.979,207.600 104.915 C 207.600 104.607,207.163 104.930,205.551 106.431 M170.575 132.900 L 169.400 134.200 170.700 133.025 C 171.912 131.930,172.184 131.600,171.875 131.600 C 171.806 131.600,171.221 132.185,170.575 132.900 M101.389 173.600 C 101.389 189.110,101.439 195.455,101.500 187.700 C 101.561 179.945,101.561 167.255,101.500 159.500 C 101.439 151.745,101.389 158.090,101.389 173.600 M159.600 150.600 C 157.961 152.250,156.710 153.600,156.820 153.600 C 156.930 153.600,158.361 152.250,160.000 150.600 C 161.639 148.950,162.890 147.600,162.780 147.600 C 162.670 147.600,161.239 148.950,159.600 150.600 M145.988 157.900 L 143.400 160.600 146.100 158.012 C 147.585 156.588,148.800 155.373,148.800 155.312 C 148.800 155.017,148.393 155.392,145.988 157.900 M150.386 160.300 L 148.200 162.600 150.500 160.414 C 152.637 158.382,152.983 158.000,152.686 158.000 C 152.624 158.000,151.589 159.035,150.386 160.300 M140.204 170.396 C 139.574 171.054,139.135 171.656,139.229 171.734 C 139.323 171.812,139.913 171.274,140.539 170.538 C 141.954 168.877,141.745 168.788,140.204 170.396 M132.185 172.100 L 130.200 174.200 132.300 172.215 C 133.455 171.123,134.400 170.178,134.400 170.115 C 134.400 169.817,134.029 170.149,132.185 172.100 M121.381 183.300 L 119.800 185.000 121.500 183.419 C 123.081 181.948,123.384 181.600,123.081 181.600 C 123.016 181.600,122.251 182.365,121.381 183.300 M106.187 198.500 L 103.800 201.000 106.300 198.613 C 108.622 196.395,108.983 196.000,108.687 196.000 C 108.626 196.000,107.501 197.125,106.187 198.500 M109.178 202.300 L 107.800 203.800 109.300 202.422 C 110.125 201.663,110.800 200.988,110.800 200.922 C 110.800 200.616,110.462 200.904,109.178 202.300 M101.381 226.600 C 101.380 234.520,101.434 237.817,101.499 233.926 C 101.565 230.035,101.565 223.555,101.500 219.526 C 101.434 215.497,101.381 218.680,101.381 226.600 " stroke="none" fill="#ace491" fill-rule="evenodd"></path><path id="path3" d="M102.938 106.139 C 102.878 108.909,102.886 108.934,103.190 106.940 C 103.362 105.808,103.613 104.703,103.747 104.486 C 103.881 104.268,103.768 103.908,103.496 103.684 C 103.111 103.368,102.986 103.916,102.938 106.139 M195.435 103.748 C 195.717 104.481,195.369 105.131,192.937 108.415 C 188.970 113.769,186.727 116.313,179.400 123.760 C 178.080 125.102,175.839 127.460,174.421 129.000 C 173.003 130.540,166.427 137.290,159.809 144.000 C 153.191 150.710,142.561 161.577,136.188 168.149 C 123.236 181.503,103.336 201.600,103.063 201.600 C 102.473 201.600,102.376 197.047,102.319 166.444 C 102.285 147.830,102.188 133.586,102.104 134.791 C 102.020 135.996,101.738 137.115,101.476 137.277 C 100.864 137.654,100.563 203.123,101.170 203.730 C 101.421 203.981,102.449 203.212,104.079 201.551 C 105.466 200.139,112.090 193.402,118.800 186.581 C 125.510 179.759,133.970 171.121,137.600 167.386 C 141.230 163.650,149.960 154.735,157.000 147.574 C 172.829 131.472,185.520 118.231,188.410 114.800 C 189.614 113.370,190.690 112.110,190.800 112.000 C 191.236 111.564,193.519 108.497,194.725 106.728 C 196.037 104.801,196.295 103.829,195.605 103.403 C 195.382 103.265,195.308 103.417,195.435 103.748 M205.400 105.340 C 204.300 106.476,201.690 108.748,199.600 110.390 C 195.611 113.524,178.827 130.111,161.593 147.952 C 155.987 153.756,148.565 161.371,145.100 164.876 C 141.635 168.380,138.800 171.430,138.800 171.653 C 138.800 172.041,140.112 173.830,145.656 181.000 C 147.017 182.760,149.226 185.640,150.565 187.400 C 151.904 189.160,153.091 190.690,153.202 190.800 C 153.313 190.910,154.753 192.787,156.402 194.971 C 158.051 197.156,160.182 199.946,161.139 201.171 C 162.095 202.397,163.836 204.660,165.008 206.200 C 166.180 207.740,168.413 210.620,169.970 212.600 C 171.528 214.580,173.236 216.846,173.766 217.636 C 174.296 218.426,174.970 219.326,175.265 219.636 C 175.559 219.946,176.962 221.730,178.382 223.600 C 181.740 228.024,185.988 233.563,190.037 238.800 C 191.823 241.110,194.300 244.350,195.542 246.000 C 196.784 247.650,198.003 249.180,198.251 249.400 C 198.499 249.620,201.432 253.400,204.768 257.800 C 210.487 265.343,211.704 266.897,215.731 271.800 C 218.078 274.659,222.822 279.340,227.000 282.923 C 232.603 287.726,233.067 288.160,233.285 288.800 C 233.398 289.130,233.642 289.258,233.826 289.086 C 234.171 288.763,232.661 287.300,225.000 280.532 C 220.922 276.929,216.118 271.831,213.506 268.334 C 212.904 267.528,212.182 266.629,211.900 266.335 C 210.848 265.238,203.270 255.311,201.704 252.980 C 200.810 251.649,199.601 250.119,199.017 249.580 C 198.433 249.041,197.248 247.610,196.383 246.400 C 195.519 245.190,193.054 241.924,190.906 239.142 C 188.758 236.360,185.572 232.220,183.827 229.942 C 182.082 227.664,180.551 225.710,180.425 225.600 C 180.298 225.490,179.043 223.870,177.634 222.000 C 173.732 216.820,170.223 212.223,170.000 212.000 C 169.890 211.890,169.249 211.080,168.575 210.200 C 167.901 209.320,165.921 206.732,164.175 204.448 C 162.429 202.165,158.974 197.665,156.498 194.448 C 154.021 191.232,150.154 186.170,147.903 183.200 C 145.652 180.230,143.041 176.845,142.100 175.678 C 141.160 174.511,140.094 173.105,139.732 172.553 L 139.074 171.549 148.053 162.474 C 152.991 157.483,161.672 148.597,167.343 142.727 C 180.674 128.928,195.127 114.464,196.400 113.647 C 197.356 113.034,201.663 109.594,205.704 106.215 C 206.747 105.344,207.600 104.401,207.600 104.120 C 207.600 103.715,211.147 103.586,224.700 103.500 L 241.800 103.391 224.600 103.333 L 207.400 103.274 205.400 105.340 M339.300 103.494 C 340.345 103.576,342.055 103.576,343.100 103.494 C 344.145 103.412,343.290 103.344,341.200 103.344 C 339.110 103.344,338.255 103.412,339.300 103.494 M58.918 107.125 L 58.836 110.200 59.479 108.418 C 60.297 106.148,60.976 107.374,60.687 110.600 C 60.549 112.138,60.599 112.398,60.903 111.726 C 61.562 110.271,60.895 105.828,59.873 104.869 L 59.000 104.049 58.918 107.125 M104.229 104.354 C 104.108 104.548,104.265 105.403,104.577 106.254 L 105.144 107.800 105.172 106.300 C 105.187 105.475,105.009 104.800,104.776 104.800 C 104.543 104.800,104.464 104.620,104.600 104.400 C 104.736 104.180,104.757 104.000,104.647 104.000 C 104.537 104.000,104.349 104.159,104.229 104.354 M336.114 106.600 C 336.117 107.700,336.195 108.103,336.287 107.495 C 336.379 106.886,336.377 105.986,336.282 105.495 C 336.187 105.003,336.111 105.500,336.114 106.600 M336.798 114.918 L 336.996 119.400 337.112 115.235 C 337.177 112.944,337.088 110.927,336.915 110.753 C 336.742 110.579,336.689 112.453,336.798 114.918 M102.881 111.302 C 102.616 111.621,102.332 113.214,102.248 114.841 C 102.165 116.469,102.168 117.170,102.255 116.400 C 102.602 113.333,103.276 112.185,103.724 113.900 C 103.825 114.285,103.915 114.060,103.925 113.400 C 103.954 111.531,103.481 110.580,102.881 111.302 M60.255 114.202 C 60.115 114.567,60.025 115.526,60.054 116.333 C 60.089 117.264,60.172 117.471,60.282 116.900 C 60.710 114.681,61.585 116.537,61.595 119.680 C 61.599 121.055,61.413 121.665,60.903 121.950 C 60.520 122.165,60.342 122.475,60.507 122.641 C 61.400 123.534,62.034 121.331,61.833 118.029 C 61.627 114.622,60.832 112.696,60.255 114.202 M102.075 120.910 C 101.780 121.265,101.530 123.221,101.442 125.849 C 101.362 128.242,101.365 129.390,101.447 128.400 C 101.864 123.369,102.545 121.556,102.911 124.500 C 103.021 125.391,103.083 125.171,103.108 123.800 C 103.155 121.192,102.759 120.085,102.075 120.910 M196.901 121.800 C 196.905 122.680,196.987 122.993,197.083 122.495 C 197.179 121.998,197.175 121.278,197.075 120.895 C 196.975 120.513,196.896 120.920,196.901 121.800 M337.773 131.600 C 337.773 136.990,337.830 139.195,337.899 136.500 C 337.968 133.805,337.968 129.395,337.899 126.700 C 337.830 124.005,337.773 126.210,337.773 131.600 M61.050 126.050 C 60.913 126.738,60.827 128.222,60.860 129.350 C 60.897 130.604,60.981 130.934,61.077 130.200 C 61.595 126.250,62.108 127.571,62.442 133.711 L 62.730 139.000 62.607 132.600 C 62.489 126.461,62.276 124.800,61.607 124.800 C 61.438 124.800,61.188 125.363,61.050 126.050 M197.764 140.600 C 197.763 144.340,197.823 145.924,197.897 144.120 C 197.971 142.315,197.972 139.255,197.898 137.320 C 197.825 135.384,197.764 136.860,197.764 140.600 M102.166 201.285 C 102.855 201.671,102.526 203.200,101.753 203.200 C 101.286 203.200,101.215 198.686,101.297 174.300 L 101.394 145.400 101.500 173.186 C 101.589 196.507,101.695 201.022,102.166 201.285 M61.794 197.200 C 61.794 224.810,61.842 236.105,61.900 222.300 C 61.958 208.495,61.958 185.905,61.900 172.100 C 61.842 158.295,61.794 169.590,61.794 197.200 M105.700 205.266 L 100.800 210.450 100.847 231.725 C 100.888 249.935,101.115 256.764,101.620 255.000 C 101.683 254.780,101.854 255.680,102.000 257.000 C 102.146 258.320,102.296 248.800,102.333 235.844 C 102.394 214.426,102.340 212.245,101.744 211.809 C 100.862 211.164,101.022 210.934,106.180 205.454 C 111.293 200.021,111.203 200.045,113.800 203.416 C 119.806 211.212,130.379 224.749,135.186 230.800 C 137.721 233.990,140.545 237.590,141.463 238.800 C 142.381 240.010,144.002 242.109,145.066 243.465 C 146.130 244.821,148.026 247.251,149.280 248.865 C 150.534 250.479,152.842 253.420,154.409 255.400 C 155.977 257.380,157.792 259.720,158.443 260.600 C 159.095 261.480,159.872 262.494,160.170 262.854 C 167.124 271.232,176.800 286.128,176.800 288.455 C 176.800 288.865,176.992 289.200,177.227 289.200 C 179.388 289.200,172.442 278.237,159.600 261.381 C 156.577 257.414,146.219 244.170,146.005 244.000 C 145.867 243.890,144.598 242.270,143.185 240.400 C 141.772 238.530,138.813 234.727,136.608 231.949 C 134.404 229.172,131.250 225.156,129.600 223.025 C 127.950 220.895,125.430 217.656,124.000 215.828 C 122.570 214.000,119.960 210.658,118.200 208.402 C 112.905 201.613,111.524 199.998,111.051 200.041 C 110.803 200.064,108.395 202.415,105.700 205.266 M101.499 233.926 C 101.434 237.817,101.380 234.520,101.381 226.600 C 101.381 218.680,101.434 215.497,101.500 219.526 C 101.565 223.555,101.565 230.035,101.499 233.926 M61.771 253.029 C 62.273 253.530,62.392 254.559,62.360 258.129 C 62.307 264.132,61.745 265.950,61.041 262.400 C 60.932 261.850,60.914 262.726,61.002 264.347 C 61.229 268.540,61.903 268.889,62.443 265.094 C 63.241 259.493,62.746 252.400,61.557 252.400 C 61.329 252.400,61.426 252.683,61.771 253.029 M101.590 261.412 C 100.917 262.223,101.301 270.957,102.049 271.859 C 102.762 272.718,103.156 271.656,103.108 269.000 C 103.083 267.629,103.021 267.409,102.911 268.300 C 102.822 269.015,102.603 269.600,102.425 269.600 C 101.563 269.600,101.252 262.108,102.080 261.280 C 102.344 261.016,102.456 260.800,102.329 260.800 C 102.202 260.800,101.869 261.075,101.590 261.412 M61.641 272.600 C 61.548 275.475,60.734 277.085,60.276 275.300 C 60.178 274.915,60.150 275.290,60.215 276.133 C 60.345 277.826,60.550 278.202,61.142 277.836 C 61.601 277.552,62.173 272.877,61.887 271.758 C 61.780 271.341,61.669 271.720,61.641 272.600 M102.365 274.865 C 101.756 276.003,102.234 280.753,103.048 281.653 C 103.536 282.192,103.561 282.474,103.173 283.094 C 102.842 283.625,102.781 284.694,102.978 286.532 C 103.296 289.503,103.948 290.004,104.720 287.872 C 105.321 286.209,105.342 285.065,104.765 285.422 C 104.526 285.569,104.417 286.023,104.524 286.430 C 104.630 286.838,104.488 287.361,104.208 287.594 C 103.825 287.911,103.637 287.790,103.454 287.108 C 102.968 285.293,103.179 283.253,103.900 282.797 C 104.388 282.488,104.452 282.291,104.112 282.147 C 103.787 282.010,103.685 281.315,103.806 280.071 C 103.939 278.714,103.896 278.475,103.651 279.200 L 103.312 280.200 102.856 279.074 C 102.209 277.477,102.291 275.366,103.029 274.629 C 103.374 274.283,103.471 274.000,103.243 274.000 C 103.015 274.000,102.620 274.389,102.365 274.865 M60.728 281.538 C 60.952 284.784,60.234 285.837,59.459 283.400 L 58.824 281.400 58.900 284.300 C 58.975 287.203,59.369 287.842,60.351 286.659 C 60.916 285.978,61.432 280.191,60.954 279.895 C 60.759 279.774,60.658 280.513,60.728 281.538 " stroke="none" fill="#a0e285" fill-rule="evenodd"></path><path id="path4" d="M207.829 104.307 C 207.695 104.729,205.429 106.822,202.793 108.956 C 200.157 111.091,198.000 112.930,198.000 113.042 C 198.000 113.154,200.232 111.433,202.959 109.217 C 207.446 105.573,208.749 104.216,208.246 103.713 C 208.151 103.618,207.963 103.885,207.829 104.307 M104.488 108.424 C 104.508 109.105,104.652 109.440,104.813 109.180 C 105.073 108.758,104.890 107.200,104.580 107.200 C 104.510 107.200,104.469 107.751,104.488 108.424 M102.800 113.967 C 102.800 114.168,102.974 114.393,103.187 114.467 C 103.400 114.540,103.619 115.185,103.672 115.900 C 103.726 116.615,103.915 117.200,104.093 117.200 C 104.384 117.200,104.269 116.266,103.736 114.300 C 103.540 113.578,102.800 113.315,102.800 113.967 M183.385 119.300 L 181.400 121.400 183.500 119.415 C 184.655 118.323,185.600 117.378,185.600 117.315 C 185.600 117.017,185.229 117.349,183.385 119.300 M195.880 117.736 C 195.767 118.031,195.835 118.526,196.031 118.836 C 196.291 119.247,196.389 119.101,196.394 118.300 C 196.401 117.106,196.204 116.890,195.880 117.736 M60.000 118.367 C 60.000 118.789,59.891 119.419,59.757 119.767 C 59.624 120.115,59.677 120.400,59.875 120.400 C 60.074 120.400,60.279 119.770,60.331 119.000 C 60.383 118.230,60.329 117.600,60.213 117.600 C 60.096 117.600,60.000 117.945,60.000 118.367 M197.102 121.000 C 197.207 121.550,197.362 122.000,197.447 122.000 C 197.531 122.000,197.600 121.550,197.600 121.000 C 197.600 120.450,197.445 120.000,197.255 120.000 C 197.066 120.000,196.997 120.450,197.102 121.000 M202.656 121.478 C 202.214 121.919,202.355 247.600,202.798 247.600 C 203.232 247.600,203.590 121.641,203.156 121.373 C 203.021 121.290,202.796 121.337,202.656 121.478 M196.800 126.967 C 196.800 129.039,196.691 131.019,196.557 131.367 C 196.424 131.715,196.493 132.000,196.711 132.000 C 196.945 132.000,197.134 130.196,197.173 127.600 C 197.208 125.180,197.139 123.200,197.019 123.200 C 196.899 123.200,196.800 124.895,196.800 126.967 M102.909 127.920 C 102.916 129.305,103.047 130.295,103.201 130.120 C 103.355 129.944,103.350 128.810,103.189 127.600 L 102.897 125.400 102.909 127.920 M182.778 127.100 L 181.400 128.600 182.900 127.222 C 183.725 126.463,184.400 125.788,184.400 125.722 C 184.400 125.416,184.062 125.704,182.778 127.100 M61.206 130.100 C 61.211 130.828,61.286 130.885,61.600 130.400 C 62.101 129.624,62.101 129.200,61.600 129.200 C 61.380 129.200,61.203 129.605,61.206 130.100 M60.711 134.500 C 60.615 136.315,60.665 137.950,60.822 138.133 C 60.978 138.317,61.133 136.832,61.165 134.833 C 61.237 130.296,60.944 130.081,60.711 134.500 M197.483 133.883 C 197.779 134.093,198.022 135.619,198.109 137.813 L 198.252 141.400 198.226 137.632 C 198.205 134.638,198.077 133.831,197.600 133.702 C 197.173 133.586,197.140 133.638,197.483 133.883 M165.785 137.700 L 163.800 139.800 165.900 137.815 C 167.055 136.723,168.000 135.778,168.000 135.715 C 168.000 135.417,167.629 135.749,165.785 137.700 M164.181 146.100 L 162.600 147.800 164.300 146.219 C 165.881 144.748,166.184 144.400,165.881 144.400 C 165.816 144.400,165.051 145.165,164.181 146.100 M197.794 195.800 C 197.794 222.640,197.842 233.561,197.900 220.069 C 197.958 206.577,197.958 184.617,197.900 171.269 C 197.841 157.921,197.794 168.960,197.794 195.800 M150.175 153.300 L 149.000 154.600 150.300 153.425 C 151.015 152.779,151.600 152.194,151.600 152.125 C 151.600 151.816,151.270 152.088,150.175 153.300 M154.400 156.200 C 153.428 157.190,152.723 158.000,152.833 158.000 C 152.943 158.000,153.828 157.190,154.800 156.200 C 155.772 155.210,156.477 154.400,156.367 154.400 C 156.257 154.400,155.372 155.210,154.400 156.200 M139.391 164.500 L 136.200 167.800 139.500 164.609 C 142.565 161.646,142.982 161.200,142.691 161.200 C 142.630 161.200,141.145 162.685,139.391 164.500 M127.375 176.900 L 126.200 178.200 127.500 177.025 C 128.712 175.930,128.984 175.600,128.675 175.600 C 128.606 175.600,128.021 176.185,127.375 176.900 M114.187 190.100 L 111.800 192.600 114.300 190.213 C 116.622 187.995,116.983 187.600,116.687 187.600 C 116.626 187.600,115.501 188.725,114.187 190.100 M104.575 207.300 L 103.400 208.600 104.700 207.425 C 105.912 206.330,106.184 206.000,105.875 206.000 C 105.806 206.000,105.221 206.585,104.575 207.300 M200.208 250.500 C 201.067 251.545,201.834 252.400,201.912 252.400 C 202.198 252.400,200.461 250.178,199.566 249.400 C 199.060 248.960,199.349 249.455,200.208 250.500 M60.693 257.100 C 60.883 261.033,61.195 263.150,61.623 263.414 C 62.109 263.714,62.108 262.949,61.622 262.041 C 61.414 261.653,61.210 259.775,61.168 257.867 C 61.126 255.960,60.972 254.400,60.827 254.400 C 60.681 254.400,60.621 255.615,60.693 257.100 M102.887 265.100 C 102.830 267.717,103.045 267.517,103.318 264.700 C 103.419 263.655,103.375 262.800,103.219 262.800 C 103.064 262.800,102.914 263.835,102.887 265.100 M59.856 271.510 C 59.750 271.680,59.812 272.445,59.992 273.210 L 60.319 274.600 60.294 272.900 C 60.268 271.175,60.199 270.954,59.856 271.510 M103.709 276.391 C 103.743 276.836,103.912 277.200,104.085 277.200 C 104.527 277.200,104.479 276.096,104.024 275.815 C 103.818 275.687,103.676 275.947,103.709 276.391 M103.300 278.223 C 102.711 278.863,102.662 279.200,103.157 279.200 C 103.498 279.200,104.137 277.996,103.909 277.783 C 103.849 277.727,103.575 277.925,103.300 278.223 M300.176 288.440 C 300.035 288.667,299.983 288.886,300.060 288.927 C 300.672 289.247,345.193 288.713,344.992 288.387 C 344.645 287.825,300.523 287.877,300.176 288.440 " stroke="none" fill="#ace49c" fill-rule="evenodd"></path></g></svg>